#tb 0: 8333/100000
0,          0,          0,        1,   384000, 0xef37f34b
0,          1,          1,        1,   384000, 0xef37f34b
0,          2,          2,        1,   384000, 0xfca3cd8b
0,          3,          3,        1,   384000, 0xfca3cd8b
0,          4,          4,        1,   384000, 0x6dd34bb7
0,          5,          5,        1,   384000, 0x6dd34bb7
0,          6,          6,        1,   384000, 0xfd518717
0,          7,          7,        1,   384000, 0xfd518717
0,          8,          8,        1,   384000, 0x82db5c7b
0,          9,          9,        1,   384000, 0x82db5c7b
0,         10,         10,        1,   384000, 0xe280a5a6
0,         11,         11,        1,   384000, 0xe280a5a6
